<svg xmlns="http://www.w3.org/2000/svg" viewBox="0 0 1024 1024"><path d="M218.794667 0h586.410666c76.060444 0 103.651556 7.964444 131.470223 22.755556 27.875556 14.904889 49.664 36.750222 64.512 64.568888 14.904889 27.818667 22.812444 55.409778 22.812444 131.413334v586.524444c0 76.003556-7.964444 103.594667-22.755556 131.413334a155.079111 155.079111 0 0 1-64.568888 64.512c-27.818667 14.904889-55.409778 22.812444-131.413334 22.812444H218.680889c-76.003556 0-103.594667-7.964444-131.413333-22.755556A155.079111 155.079111 0 0 1 22.755556 936.618667C7.907556 908.856889 0 881.265778 0 805.262222V218.680889c0-76.003556 7.964444-103.594667 22.755556-131.413333A155.079111 155.079111 0 0 1 87.381333 22.755556C115.143111 7.907556 142.734222 0 218.737778 0z m351.118222 236.088889l-56.149333 9.557333c9.557333 20.366222 17.976889 41.870222 26.282666 65.706667H475.591111v219.249778h294.456889V311.352889h-65.706667c9.557333-21.447111 16.725333-44.771556 22.129778-69.859556l-54.385778-7.736889c-4.778667 26.851556-11.377778 52.508444-20.878222 77.596445h-59.164444a788.309333 788.309333 0 0 0-22.129778-75.207111z m151.722667 247.352889H643.982222V358.570667h77.653334v124.871111z m-123.619556 0H523.320889V358.570667h74.695111v124.871111zM566.385778 378.88l-33.450667 10.752a540.444444 540.444444 0 0 1 23.267556 78.279111l32.256-8.988444a659.968 659.968 0 0 0-22.072889-80.042667z m111.104-3.015111c-7.224889 32.256-14.961778 59.733333-24.519111 81.294222l34.645333 12.515556c10.126222-24.462222 18.488889-52.565333 25.088-84.195556l-35.271111-9.557333z m71.68 182.215111h-250.88v229.376h53.134222v-21.504h145.180444v21.504h52.565334V558.08z m-197.745778 161.848889v-36.408889h145.180444v36.408889H551.424z m0-78.222222v-37.660445h145.180444v37.660445H551.424zM452.266667 260.608H253.326222v375.694222h49.607111V309.589333h100.352v323.128889h48.981334V260.664889z m-56.775111 396.629333l-34.019556 33.450667c30.435556 31.061333 54.328889 60.302222 71.111111 87.779556l39.367111-38.798223a641.592889 641.592889 0 0 0-76.401778-82.432zM331.662222 341.219556V533.048889c-1.194667 54.385778-8.931556 98.531556-22.072889 132.608-13.767111 32.256-40.049778 58.538667-78.279111 78.848l29.240889 45.397333c40.049778-20.878222 68.721778-50.801778 86.641778-89.6 17.294222-41.813333 26.851556-97.336889 28.672-167.253333v-191.715556h-44.202667z" fill="#FFA940"/></svg>
